# xmcd CD database file
#
# Track frame offsets:
#	150
#	16088
#	28672
#	43801
#	72107
#	92761
#	113842
#	128617
#
# Disc length: 1957 seconds
#
# Revision: 0
# Processed by: cddbd v1.5.2PL0 Copyright (c) Steve Scherf et al.
# Submitted via: CDex 1.51
#
DISCID=5e07a308
DTITLE=Lalo Schifrin - Lalo=Brilliance (The piano of Lalo Schifrin)
DYEAR=1962
DGENRE=Jazz
TTITLE0=The snake's dance
TTITLE1=An evening in Sao Paulo
TTITLE2=Desafinado
TTITLE3=Kush
TTITLE4=Rhythm-a-ning
TTITLE5=Mount Olive
TTITLE6=Cubano be
TTITLE7=Sphayros
EXTD=YEAR: 1962
EXTT0=
EXTT1=
EXTT2=
EXTT3=
EXTT4=
EXTT5=
EXTT6=
EXTT7=
PLAYORDER=
